<svg height="64" viewBox="0 0 1024 1024" width="64" xmlns="http://www.w3.org/2000/svg">
    <path
        d="m676.032 1024h-328.064a32 32 0 0 1 -32-32v-653.824l-147.2-156.224a32 32 0 0 1 23.232-53.952h640a32 32 0 0 1 23.296 53.952l-147.264 156.224v653.824a32 32 0 0 1 -32 32zm-296.064-64h264.128v-634.56c0-8.128 3.136-16 8.704-21.952l105.088-111.488h-491.776l105.088 111.552a32.128 32.128 0 0 1 8.704 21.952v634.496zm276.032-896h-288a32 32 0 0 1 0-64h288a32 32 0 0 1 0 64z" />
    <path d="m512 672a32 32 0 0 1 -32-32v-96a32 32 0 0 1 64 0v96a32 32 0 0 1 -32 32z" />
</svg>