<svg height="64" viewBox="0 0 1024 1024" width="64" xmlns="http://www.w3.org/2000/svg">
    <path
        d="m675.878262 1024h-327.756524a31.970008 31.970008 0 0 1 -31.970008-31.970008v-756.921913l-148.596598-181.973286a31.970008 31.970008 0 1 1 49.489573-40.41009l155.82182 190.733068a31.906068 31.906068 0 0 1 7.225221 20.205045v736.397168h263.880448v-736.397168c0-7.353102 2.557601-14.514384 7.161281-20.205045l155.82182-190.733068a31.970008 31.970008 0 0 1 49.553513 40.47403l-148.596598 181.909346v756.921913a32.033948 32.033948 0 0 1 -32.033948 31.970008z" />
    <path
        d="m512 288.689813a31.970008 31.970008 0 0 1 -31.970008-31.970008v-191.820049a31.970008 31.970008 0 0 1 63.940016 0v191.820049a31.970008 31.970008 0 0 1 -31.970008 31.970008zm0 351.670089a31.970008 31.970008 0 0 1 -31.970008-31.970008v-95.910024a31.970008 31.970008 0 0 1 63.940016 0v95.910024a31.970008 31.970008 0 0 1 -31.970008 31.970008z" />
</svg>